PathFileType	4	(X/Y/Z)	/Users/itak/Documents/Research/Walk-IL/dataset/trc/00566_00009.trc
DataRate	CameraRate	NumFrames	NumMarkers	Units	OrigDataRate	OrigDataStartFrame	OrigNumFrames
100.000000	100.000000	4	55	mm	100.000000	370	494
Frame#	Time	RPSI			LPSI			L3			STRN			T10			C7			CLAV			RBAK			LBAK			LSHO			LUPA			LAEL			LAOL			LWPS			LFRA			LHPS			LHTS			RSHO			RUPA			RAEL			RAOL			RWTS			RWPS			RFRA			RIFD			RHTS			RHPS			RBHD			LFHD			RFHD			LBHD			LHIP			RASI			LASI			LKNE			LTHI			LANK			LTIP			LTOE			LMT1			LMT5			LHEE			RKNE			RTHI			RANK			RTIP			RTOE			RMT1			RMT5			RHEE			RHIP			LWTS			LIFD			*53			*54			
		X1	Y1	Z1	X2	Y2	Z2	X3	Y3	Z3	X4	Y4	Z4	X5	Y5	Z5	X6	Y6	Z6	X7	Y7	Z7	X8	Y8	Z8	X9	Y9	Z9	X10	Y10	Z10	X11	Y11	Z11	X12	Y12	Z12	X13	Y13	Z13	X14	Y14	Z14	X15	Y15	Z15	X16	Y16	Z16	X17	Y17	Z17	X18	Y18	Z18	X19	Y19	Z19	X20	Y20	Z20	X21	Y21	Z21	X22	Y22	Z22	X23	Y23	Z23	X24	Y24	Z24	X25	Y25	Z25	X26	Y26	Z26	X27	Y27	Z27	X28	Y28	Z28	X29	Y29	Z29	X30	Y30	Z30	X31	Y31	Z31	X32	Y32	Z32	X33	Y33	Z33	X34	Y34	Z34	X35	Y35	Z35	X36	Y36	Z36	X37	Y37	Z37	X38	Y38	Z38	X39	Y39	Z39	X40	Y40	Z40	X41	Y41	Z41	X42	Y42	Z42	X43	Y43	Z43	X44	Y44	Z44	X45	Y45	Z45	X46	Y46	Z46	X47	Y47	Z47	X48	Y48	Z48	X49	Y49	Z49	X50	Y50	Z50	X51	Y51	Z51	X52	Y52	Z52	X53	Y53	Z53	X54	Y54	Z54	X55	Y55	Z55	

371	3.7	393.8920288085938	997.9281616210938	909.210693359375	527.73828125	1000.835998535156	906.8844604492188	461.5778198242188	1093.2744140625	910.6780395507812	475.1121215820312	1286.209228515625	1135.45703125	460.1380920410156	1218.600952148438	896.0613403320312	443.08740234375	1494.446044921875	940.3967895507812	471.5257873535156	1396.297119140625	1113.746459960938	352.5063781738281	1365.764892578125	880.2865600585938	532.7598876953125	1441.858154296875	897.1470947265625	624.1314086914062	1468.90380859375	986.4358520507812	705.768798828125	1343.525756835938	976.3760986328125	740.82177734375	1126.337646484375	1012.225830078125	681.370849609375	1107.433471679688	932.9666137695312	784.4867553710938	869.43505859375	1082.1484375	754.88525390625	1043.655639648438	1042.385620117188	780.38916015625	810.352294921875	1096.519165039062	741.0269165039062	818.2905883789062	1151.667724609375	294.5466918945312	1453.75439453125	1015.51806640625	225.1202697753906	1388.35888671875	1005.465148925781	180.7720031738281	1099.129028320312	1002.986267089844	204.7252655029297	1082.065673828125	946.0037841796875	223.5960845947266	877.416259765625	1134.368286132812	153.8472442626953	858.0694580078125	1091.933959960938	171.0278015136719	1043.484008789062	1013.196899414062	221.3671569824219	703.2520751953125	1138.009765625	210.1491851806641	784.8245239257812	1160.1123046875	158.5690002441406	783.4212646484375	1106.744506835938	381.8644409179688	1678.948486328125	1056.51513671875	533.1705932617188	1674.388916015625	1199.0107421875	389.4528503417969	1670.913452148438	1196.903198242188	547.9218139648438	1680.13134765625	1066.2109375	660.6295776367188	932.9178466796875	1040.2041015625	329.5708618164062	959.619140625	1120.682983398438	606.7744140625	961.0344848632812	1115.720581054688	602.3510131835938	517.2998657226562	1204.630859375	638.207275390625	672.263916015625	1147.272094726562	606.0499877929688	34.53666687011719	1184.65966796875	609.5983276367188	260.6969909667969	1184.316650390625	531.5700073242188	47.34503555297852	1391.875610351562	503.7923889160156	51.08766937255859	1316.92041015625	612.5314331054688	40.4094123840332	1307.689331054688	554.6318969726562	41.2645263671875	1113.397094726562	298.8836975097656	486.1608276367188	1024.973510742188	278.1034240722656	773.3097534179688	1063.078857421875	291.7339477539062	163.9637145996094	659.291015625	306.1873168945312	361.7075805664062	941.6173706054688	389.9621276855469	38.81230545043945	798.2646484375	410.8952941894531	77.718505859375	743.1845703125	307.2809753417969	70.95832824707031	750.87939453125	332.0503540039062	206.2584991455078	610.6783447265625	274.3741760253906	927.734375	1032.657104492188	717.181396484375	893.8375244140625	1132.265625	718.4337768554688	723.3026123046875	1133.090209960938	nan	nan	nan	nan	nan	nan	
372	3.71	395.9356384277344	999.2885131835938	914.6521606445312	529.8265380859375	1002.464233398438	912.887451171875	463.9479370117188	1094.604858398438	916.6674194335938	476.9707336425781	1287.198608398438	1141.832397460938	462.8984069824219	1219.934814453125	902.4432983398438	445.9313049316406	1495.764770507812	946.8721313476562	473.6443176269531	1397.40869140625	1120.253173828125	355.5083618164062	1367.2333984375	886.2352294921875	535.75732421875	1443.1123046875	903.9509887695312	626.6653442382812	1470.178588867188	993.6422119140625	708.5716552734375	1344.992309570312	984.0679931640625	743.9005737304688	1128.09814453125	1021.208801269531	684.90771484375	1108.428344726562	941.7733764648438	787.2604370117188	872.1233520507812	1094.431396484375	757.8699340820312	1045.755737304688	1052.3466796875	783.2000732421875	813.2457885742188	1109.691162109375	743.5023803710938	821.55712890625	1164.203857421875	297.0684509277344	1455.078735351562	1021.350158691406	227.5408782958984	1389.804077148438	1010.951965332031	183.0150299072266	1100.6083984375	1008.393493652344	207.0936584472656	1083.401733398438	951.5050659179688	225.26708984375	879.4847412109375	1140.717895507812	155.8284454345703	859.8392333984375	1098.077758789062	173.2443389892578	1044.970947265625	1018.72998046875	223.0587921142578	705.3220825195312	1145.267944335938	211.7550659179688	787.0067138671875	1166.880615234375	160.4166717529297	785.2860107421875	1113.294555664062	384.30615234375	1680.152709960938	1062.872924804688	535.087158203125	1675.568969726562	1205.889038085938	391.3917236328125	1672.124145507812	1203.329956054688	550.3041381835938	1681.297973632812	1073.129150390625	662.4478149414062	933.9544067382812	1046.225463867188	331.2055053710938	960.74267578125	1125.884155273438	608.4850463867188	961.8895874023438	1121.76220703125	602.9268188476562	517.0930786132812	1207.373901367188	639.2164306640625	672.5393676757812	1151.543334960938	606.0409545898438	34.58147430419922	1184.673583984375	609.9503784179688	260.60302734375	1185.630981445312	531.347900390625	47.24559783935547	1391.9189453125	503.7191467285156	51.00583267211914	1316.966552734375	612.4608154296875	40.45488739013672	1307.739379882812	554.6461791992188	41.28281402587891	1113.401245117188	300.6474914550781	486.6235961914062	1035.597900390625	280.1676330566406	774.8150024414062	1070.021606445312	292.1516418457031	169.3654632568359	666.3973999023438	307.683349609375	362.7754516601562	951.448486328125	387.5886840820312	38.94975280761719	804.6422729492188	409.7458801269531	80.11003875732422	750.24072265625	306.0139465332031	75.02487182617188	756.7633666992188	333.1068725585938	211.5316925048828	618.3108520507812	276.3713684082031	928.4926147460938	1037.93408203125	719.760009765625	897.1666259765625	1143.959838867188	721.0391235351562	726.8124389648438	1147.151977539062	nan	nan	nan	nan	nan	nan	
373	3.72	397.8530578613281	1000.588623046875	919.89599609375	531.7979736328125	1004.066223144531	918.66162109375	466.1952819824219	1095.900268554688	922.4505615234375	478.6869201660156	1288.123168945312	1148.056518554688	465.53564453125	1221.225708007812	908.64501953125	448.7225646972656	1497.052734375	953.2333374023438	475.6446228027344	1398.465576171875	1126.629760742188	358.4448852539062	1368.692993164062	892.025146484375	538.7144775390625	1444.334350585938	910.6649169921875	629.128173828125	1471.376831054688	1000.801147460938	711.2874755859375	1346.377685546875	991.7008666992188	746.92822265625	1129.782104492188	1029.9990234375	688.361083984375	1109.369018554688	950.4081420898438	789.9031372070312	874.7493896484375	1106.521728515625	760.7951049804688	1047.783203125	1062.093627929688	785.8639526367188	816.1069946289062	1122.687133789062	745.9042358398438	824.7703857421875	1176.53759765625	299.4838256835938	1456.399291992188	1027.024291992188	229.8915405273438	1391.2333984375	1016.260620117188	185.2237243652344	1102.045532226562	1013.709655761719	209.500244140625	1084.675415039062	956.9375	226.927490234375	881.5969848632812	1147.101318359375	157.8264312744141	861.6337890625	1104.231689453125	175.4880676269531	1046.418701171875	1024.182250976562	224.7177429199219	707.4667358398438	1152.723388671875	213.3158569335938	789.2769775390625	1173.766845703125	162.2813568115234	787.1929931640625	1119.921875	386.6707763671875	1681.297729492188	1069.108764648438	536.9078369140625	1676.713989257812	1212.6474609375	393.2338562011719	1673.299560546875	1209.635375976562	552.596435546875	1682.42236328125	1079.933349609375	664.1751708984375	934.96728515625	1051.998779296875	332.7417907714844	961.803466796875	1130.88818359375	610.0906982421875	962.7186889648438	1127.573852539062	603.4819946289062	516.8728637695312	1209.84765625	640.1836547851562	672.7905883789062	1155.554443359375	606.031982421875	34.62417221069336	1184.684326171875	610.2980346679688	260.4931945800781	1186.776977539062	531.16943359375	47.17322158813477	1391.949951171875	503.6680603027344	50.94036865234375	1317.005737304688	612.3987426757812	40.48758316040039	1307.780395507812	554.6582641601562	41.29709243774414	1113.399658203125	302.534423828125	487.0772705078125	1046.135498046875	282.3209228515625	776.4238891601562	1076.988159179688	292.9675598144531	174.1139221191406	673.85498046875	309.3473205566406	363.8021850585938	961.2771606445312	384.4858093261719	39.45605850219727	812.6150512695312	408.2461853027344	82.14139556884766	758.7612915039062	304.3487243652344	79.15090179443359	763.6651000976562	334.7990112304688	215.7218017578125	626.1583251953125	278.1928405761719	929.2844848632812	1043.002319335938	722.298828125	900.5011596679688	1155.51611328125	723.940185546875	730.82421875	1161.658447265625	nan	nan	nan	nan	nan	nan	
374	3.73	399.6575012207031	1001.82568359375	924.9420776367188	533.6660766601562	1005.626770019531	924.2041015625	468.3193054199219	1097.1611328125	928.0304565429688	480.2657775878906	1288.988647460938	1154.124877929688	468.0535888671875	1222.477661132812	914.6611328125	451.454345703125	1498.310302734375	959.4810791015625	477.516845703125	1399.467041015625	1132.870483398438	361.3135681152344	1370.139404296875	897.6591796875	541.6243896484375	1445.529418945312	917.291259765625	631.5177612304688	1472.489990234375	1007.915832519531	713.9102783203125	1347.668701171875	999.2965698242188	749.9014892578125	1131.375122070312	1038.639404296875	691.7570190429688	1110.247314453125	958.8866577148438	792.4094848632812	877.2875366210938	1118.424194335938	763.6527709960938	1049.722778320312	1071.659545898438	788.3771362304688	818.9092407226562	1135.493774414062	748.2175903320312	827.9221801757812	1188.681030273438	301.7792663574219	1457.720458984375	1032.540405273438	232.1751251220703	1392.641479492188	1021.390808105469	187.3678894042969	1103.443969726562	1018.924865722656	211.9281005859375	1085.892333984375	962.2923583984375	228.5931396484375	883.752685546875	1153.501098632812	159.8369750976562	863.4544067382812	1110.390747070312	177.7493896484375	1047.831298828125	1029.544067382812	226.3740539550781	709.685546875	1160.336059570312	214.8546295166016	791.6314697265625	1180.741943359375	164.1661376953125	789.1427612304688	1126.613647460938	388.9587097167969	1682.39111328125	1075.222290039062	538.63818359375	1677.816650390625	1219.285888671875	394.9808044433594	1674.442504882812	1215.816650390625	554.8034057617188	1683.498291015625	1086.625610351562	665.812744140625	935.9437255859375	1057.542114257812	334.2018432617188	962.8152465820312	1135.710571289062	611.60595703125	963.515869140625	1133.149291992188	604.0253295898438	516.6442260742188	1212.067016601562	641.1201171875	673.0069580078125	1159.293090820312	606.0194091796875	34.66661071777344	1184.693603515625	610.6368408203125	260.3717346191406	1187.763305664062	531.0313110351562	47.11449813842773	1391.97216796875	503.6286315917969	50.88695907592773	1317.040283203125	612.3448486328125	40.51137542724609	1307.812377929688	554.6649169921875	41.30835723876953	1113.3935546875	304.4645385742188	487.5794372558594	1056.515991210938	284.5650329589844	778.1417236328125	1083.99267578125	294.1997375488281	178.0614013671875	681.7589111328125	311.0805358886719	364.8274841308594	971.0723876953125	380.7418518066406	40.36170196533203	822.2335205078125	406.4048767089844	83.70696258544922	768.7393798828125	302.3453063964844	83.19591522216797	771.7131958007812	337.1177368164062	218.6544342041016	634.2953491210938	279.8540344238281	930.117919921875	1047.883911132812	724.7759399414062	903.8089599609375	1166.912353515625	726.9896240234375	735.1820068359375	1176.406616210938	nan	nan	nan	nan	nan	nan	
